<mxfile host="65bd71144e">
    <diagram id="XF5h1cMj-qbJH50a38Ld" name="Page-1">
        <mxGraphModel dx="1695" dy="1707" grid="1" gridSize="10" guides="1" tooltips="1" connect="1" arrows="1" fold="1" page="1" pageScale="1" pageWidth="850" pageHeight="1100" math="0" shadow="0">
            <root>
                <mxCell id="0"/>
                <mxCell id="1" parent="0"/>
                <mxCell id="9" value="" style="edgeStyle=none;html=1;" parent="1" source="7" target="8" edge="1">
                    <mxGeometry relative="1" as="geometry"/>
                </mxCell>
                <mxCell id="7" value="read file" style="rounded=1;whiteSpace=wrap;html=1;" parent="1" vertex="1">
                    <mxGeometry x="300" y="-10" width="120" height="60" as="geometry"/>
                </mxCell>
                <mxCell id="11" value="" style="edgeStyle=none;html=1;" parent="1" source="8" target="10" edge="1">
                    <mxGeometry relative="1" as="geometry"/>
                </mxCell>
                <mxCell id="8" value="see xml element open tag" style="whiteSpace=wrap;html=1;rounded=1;" parent="1" vertex="1">
                    <mxGeometry x="300" y="130" width="120" height="60" as="geometry"/>
                </mxCell>
                <mxCell id="13" value="" style="edgeStyle=none;html=1;startArrow=none;" parent="1" source="19" target="12" edge="1">
                    <mxGeometry relative="1" as="geometry"/>
                </mxCell>
                <mxCell id="21" style="edgeStyle=none;html=1;startArrow=none;" parent="1" source="10" target="12" edge="1">
                    <mxGeometry relative="1" as="geometry">
                        <mxPoint x="360" y="440" as="sourcePoint"/>
                    </mxGeometry>
                </mxCell>
                <mxCell id="10" value="make object XMLElement" style="whiteSpace=wrap;html=1;rounded=1;" parent="1" vertex="1">
                    <mxGeometry x="300" y="270" width="120" height="60" as="geometry"/>
                </mxCell>
                <mxCell id="36" value="yes" style="edgeStyle=none;html=1;" parent="1" source="12" target="34" edge="1">
                    <mxGeometry relative="1" as="geometry"/>
                </mxCell>
                <mxCell id="46" value="no" style="edgeStyle=none;html=1;" edge="1" parent="1" source="12" target="44">
                    <mxGeometry relative="1" as="geometry"/>
                </mxCell>
                <mxCell id="12" value="See xml element open tag" style="rhombus;whiteSpace=wrap;html=1;rounded=1;arcSize=0;" parent="1" vertex="1">
                    <mxGeometry x="320" y="370" width="80" height="80" as="geometry"/>
                </mxCell>
                <mxCell id="47" style="edgeStyle=none;html=1;" edge="1" parent="1" source="14" target="12">
                    <mxGeometry relative="1" as="geometry"/>
                </mxCell>
                <mxCell id="14" value="remove latest parent from list" style="whiteSpace=wrap;html=1;rounded=1;" parent="1" vertex="1">
                    <mxGeometry x="560" y="530" width="120" height="60" as="geometry"/>
                </mxCell>
                <mxCell id="31" style="edgeStyle=none;html=1;" parent="1" source="17" target="25" edge="1">
                    <mxGeometry relative="1" as="geometry"/>
                </mxCell>
                <mxCell id="17" value="make object XMLElement" style="whiteSpace=wrap;html=1;rounded=1;" parent="1" vertex="1">
                    <mxGeometry x="190" y="650" width="120" height="60" as="geometry"/>
                </mxCell>
                <mxCell id="19" value="Set parent for child as well" style="whiteSpace=wrap;html=1;rounded=1;" parent="1" vertex="1">
                    <mxGeometry y="530" width="120" height="60" as="geometry"/>
                </mxCell>
                <mxCell id="30" style="edgeStyle=none;html=1;" parent="1" source="25" target="19" edge="1">
                    <mxGeometry relative="1" as="geometry"/>
                </mxCell>
                <mxCell id="25" value="Set new object as child of latest tracked parent" style="whiteSpace=wrap;html=1;rounded=1;" parent="1" vertex="1">
                    <mxGeometry y="650" width="120" height="60" as="geometry"/>
                </mxCell>
                <mxCell id="38" style="edgeStyle=none;html=1;" parent="1" source="26" target="34" edge="1">
                    <mxGeometry relative="1" as="geometry">
                        <Array as="points">
                            <mxPoint x="340" y="710"/>
                            <mxPoint x="340" y="610"/>
                        </Array>
                    </mxGeometry>
                </mxCell>
                <mxCell id="26" value="parents will be added to an ordered list" style="shape=note;whiteSpace=wrap;html=1;backgroundOutline=1;darkOpacity=0.05;" parent="1" vertex="1">
                    <mxGeometry x="200" y="750" width="150" height="110" as="geometry"/>
                </mxCell>
                <mxCell id="37" style="edgeStyle=none;html=1;" parent="1" source="34" target="17" edge="1">
                    <mxGeometry relative="1" as="geometry"/>
                </mxCell>
                <mxCell id="34" value="keep track of object as parent" style="whiteSpace=wrap;html=1;rounded=1;" parent="1" vertex="1">
                    <mxGeometry x="190" y="530" width="120" height="60" as="geometry"/>
                </mxCell>
                <mxCell id="40" value="Set as next sibling of other" style="whiteSpace=wrap;html=1;rounded=1;" parent="1" vertex="1">
                    <mxGeometry x="80" y="420" width="120" height="60" as="geometry"/>
                </mxCell>
                <mxCell id="43" value="Set other as prev sibling of current" style="whiteSpace=wrap;html=1;rounded=1;" parent="1" vertex="1">
                    <mxGeometry x="-50" y="420" width="120" height="60" as="geometry"/>
                </mxCell>
                <mxCell id="48" value="yes" style="edgeStyle=none;html=1;" edge="1" parent="1" source="44" target="14">
                    <mxGeometry relative="1" as="geometry"/>
                </mxCell>
                <mxCell id="49" style="edgeStyle=none;html=1;" edge="1" parent="1" source="44" target="50">
                    <mxGeometry relative="1" as="geometry">
                        <mxPoint x="465" y="700" as="targetPoint"/>
                    </mxGeometry>
                </mxCell>
                <mxCell id="44" value="See xml element close tag" style="rhombus;whiteSpace=wrap;html=1;rounded=1;arcSize=0;" vertex="1" parent="1">
                    <mxGeometry x="425" y="520" width="80" height="80" as="geometry"/>
                </mxCell>
                <mxCell id="50" value="" style="ellipse;html=1;shape=endState;fillColor=#000000;strokeColor=#ff0000;" vertex="1" parent="1">
                    <mxGeometry x="450" y="730" width="30" height="30" as="geometry"/>
                </mxCell>
            </root>
        </mxGraphModel>
    </diagram>
</mxfile>